<svg width="18" height="16" viewBox="0 0 18 16" fill="none" xmlns="http://www.w3.org/2000/svg">
<path d="M9.8 2.55556C9.8 3.41467 7.83005 4.11111 5.4 4.11111C2.96995 4.11111 1 3.41467 1 2.55556M9.8 2.55556C9.8 1.69645 7.83005 1 5.4 1C2.96995 1 1 1.69645 1 2.55556M9.8 2.55556V3.72222M1 2.55556V11.8889C1 12.748 2.96995 13.4444 5.4 13.4444M5.4 7.22222C5.26516 7.22222 5.13174 7.22008 5 7.21588C2.7574 7.14443 1 6.47811 1 5.66667M5.4 10.3333C2.96995 10.3333 1 9.63689 1 8.77778M17 7.61111C17 8.47022 15.0301 9.16667 12.6 9.16667C10.1699 9.16667 8.2 8.47022 8.2 7.61111M17 7.61111C17 6.752 15.0301 6.05556 12.6 6.05556C10.1699 6.05556 8.2 6.752 8.2 7.61111M17 7.61111V13.4444C17 14.3036 15.0301 15 12.6 15C10.1699 15 8.2 14.3036 8.2 13.4444V7.61111M17 10.5278C17 11.3869 15.0301 12.0833 12.6 12.0833C10.1699 12.0833 8.2 11.3869 8.2 10.5278" stroke="#D0B36C" stroke-width="2" stroke-linecap="round" stroke-linejoin="round"/>
</svg>
