<svg width="18" height="19" viewBox="0 0 18 19" fill="none" xmlns="http://www.w3.org/2000/svg">
<path d="M6.6 6.95H6.608M11.4 12.05H11.408M12.2 6.1L5.8 12.9M17 9.5C17 14.1944 13.4183 18 9 18C4.58172 18 1 14.1944 1 9.5C1 4.80558 4.58172 1 9 1C13.4183 1 17 4.80558 17 9.5ZM7 6.95C7 7.18472 6.82091 7.375 6.6 7.375C6.37909 7.375 6.2 7.18472 6.2 6.95C6.2 6.71528 6.37909 6.525 6.6 6.525C6.82091 6.525 7 6.71528 7 6.95ZM11.8 12.05C11.8 12.2847 11.6209 12.475 11.4 12.475C11.1791 12.475 11 12.2847 11 12.05C11 11.8153 11.1791 11.625 11.4 11.625C11.6209 11.625 11.8 11.8153 11.8 12.05Z" stroke="#E74E4E" stroke-width="2" stroke-linecap="round" stroke-linejoin="round"/>
</svg>
