<svg width="18" height="18" viewBox="0 0 18 18" fill="none" xmlns="http://www.w3.org/2000/svg">
<path d="M6.6 6.6H6.608M11.4 11.4H11.408M12.2 5.8L5.8 12.2M17 9C17 13.4183 13.4183 17 9 17C4.58172 17 1 13.4183 1 9C1 4.58172 4.58172 1 9 1C13.4183 1 17 4.58172 17 9ZM7 6.6C7 6.82091 6.82091 7 6.6 7C6.37909 7 6.2 6.82091 6.2 6.6C6.2 6.37909 6.37909 6.2 6.6 6.2C6.82091 6.2 7 6.37909 7 6.6ZM11.8 11.4C11.8 11.6209 11.6209 11.8 11.4 11.8C11.1791 11.8 11 11.6209 11 11.4C11 11.1791 11.1791 11 11.4 11C11.6209 11 11.8 11.1791 11.8 11.4Z" stroke="#3AB997" stroke-width="2" stroke-linecap="round" stroke-linejoin="round"/>
</svg>
