<svg width="50" height="50" viewBox="0 0 50 50" fill="none" xmlns="http://www.w3.org/2000/svg">
<path opacity="0.2" d="M25 50C38.8071 50 50 38.8071 50 25C50 11.1929 38.8071 0 25 0C11.1929 0 0 11.1929 0 25C0 38.8071 11.1929 50 25 50Z" fill="#F3BA2F"/>
<path fill-rule="evenodd" clip-rule="evenodd" d="M19.7748 22.8513L25.0039 17.6245L30.2352 22.8556L33.2761 19.8126L25.0039 11.5386L16.7317 19.8105L19.7748 22.8513ZM11.5391 25.0001L14.581 21.9583L17.623 25.0001L14.581 28.042L11.5391 25.0001ZM25.0025 32.3778L19.7734 27.1488L16.7261 30.1875L16.7304 30.1918L25.0025 38.4616L33.2747 30.1875L33.2769 30.1854L30.2338 27.1467L25.0025 32.3778ZM32.3774 25.0011L35.4193 21.9592L38.4613 25.0011L35.4193 28.0429L32.3774 25.0011ZM25.003 21.9117L28.0886 24.9993H28.0907L28.0886 25.0015L25.003 28.0891L21.9174 25.0057L21.9132 24.9993L21.9174 24.9951L22.4576 24.455L22.7212 24.1934L25.003 21.9117Z" fill="#F3BA2F"/>
</svg>
