<svg width="17" height="17" viewBox="0 0 17 17" fill="none" xmlns="http://www.w3.org/2000/svg">
<path opacity="0.2" d="M16.7449 10.5564C15.6097 15.11 10.9973 17.881 6.4432 16.7457C1.89118 15.6104 -0.880082 10.9981 0.255465 6.44475C1.39022 1.89061 6.00226 -0.88092 10.5551 0.254361C15.1089 1.38964 17.8799 6.00249 16.7447 10.5564H16.7449Z" fill="#F7931A"/>
<path fill-rule="evenodd" clip-rule="evenodd" d="M11.0599 7.51272C11.1745 6.74545 10.5903 6.33298 9.79151 6.05782L10.0506 5.01845L9.41778 4.86078L9.1655 5.87276C8.99936 5.83131 8.82854 5.79221 8.65879 5.75347L8.91287 4.73482L8.28056 4.57715L8.02126 5.61616C7.88359 5.58481 7.74844 5.55381 7.61726 5.5212L7.61798 5.51795L6.74547 5.3001L6.57717 5.97583C6.57717 5.97583 7.04658 6.08341 7.03667 6.09008C7.29291 6.15404 7.3394 6.32361 7.33147 6.45804L7.03631 7.6421C7.05397 7.64661 7.07685 7.6531 7.10208 7.66319L7.03541 7.64661L6.6215 9.30532C6.59014 9.38316 6.51067 9.49993 6.33156 9.4556C6.33787 9.46479 5.8717 9.34081 5.8717 9.34081L5.55762 10.0652L6.38111 10.2704C6.47409 10.2937 6.56593 10.3177 6.65677 10.3414L6.6568 10.3414C6.7156 10.3568 6.77398 10.372 6.83196 10.3869L6.57014 11.4383L7.20209 11.596L7.46157 10.5559C7.63402 10.6027 7.8016 10.646 7.96558 10.6867L7.70718 11.7219L8.33985 11.8796L8.60167 10.8303C9.68051 11.0345 10.4919 10.9521 10.833 9.97655C11.1082 9.19089 10.8195 8.7377 10.2519 8.442C10.6653 8.34631 10.9767 8.0744 11.0597 7.51272H11.0599ZM9.61411 9.53965C9.4345 10.2607 8.30558 9.96237 7.78951 9.82598C7.74329 9.81377 7.70199 9.80285 7.66673 9.79408L8.01415 8.40135C8.05724 8.4121 8.1099 8.42392 8.16954 8.4373L8.16956 8.43731C8.70346 8.55711 9.79761 8.80264 9.61429 9.53965H9.61411ZM8.27705 7.79086C8.70766 7.90574 9.64628 8.15615 9.8098 7.5011C9.97697 6.83096 9.06425 6.62898 8.61849 6.53034C8.56838 6.51925 8.52417 6.50947 8.48806 6.50047L8.17308 7.76364C8.20288 7.77107 8.23786 7.7804 8.27705 7.79086Z" fill="#F7931A"/>
</svg>
