<svg width="50" height="50" viewBox="0 0 50 50" fill="none" xmlns="http://www.w3.org/2000/svg">
<path opacity="0.2" d="M25 50C38.8071 50 50 38.8071 50 25C50 11.1929 38.8071 0 25 0C11.1929 0 0 11.1929 0 25C0 38.8071 11.1929 50 25 50Z" fill="#0E2140"/>
<path fill-rule="evenodd" clip-rule="evenodd" d="M21.1158 17.6643C22.4193 17.6628 23.7227 17.6641 25.0262 17.6638C25.9361 19.6181 26.835 21.5775 27.7439 23.5321C27.7552 23.5691 27.7964 23.6086 27.7719 23.6482C27.3975 24.3021 27.0112 24.9501 26.6437 25.6078C26.4871 25.352 26.3608 25.078 26.2152 24.8152C25.4104 23.2968 24.6041 21.7789 23.7969 20.2615C23.3895 20.2638 22.9824 20.2625 22.5749 20.262C21.0223 22.8961 19.4797 25.5362 17.9276 28.1706C17.6336 28.6663 17.3491 29.1676 17.0499 29.66C18.042 29.6638 19.0339 29.6595 20.026 29.662C20.0621 29.6559 20.1183 29.6772 20.1379 29.6346C20.6409 28.8271 21.1481 28.0224 21.6519 27.2154C22.4484 28.8954 23.2362 30.5795 24.0312 32.26C20.3502 32.26 16.6693 32.2618 12.9883 32.2589C13.9521 30.5404 14.9027 28.8145 15.8655 27.0949C16.8736 25.2904 17.874 23.4815 18.8824 21.6767C19.6294 20.3406 20.3708 19.0014 21.1158 17.6643Z" fill="#01EBFE"/>
<path fill-rule="evenodd" clip-rule="evenodd" d="M26.0215 17.6641C29.7027 17.6641 33.3842 17.6623 37.0654 17.6652C36.5023 18.6622 35.9511 19.6662 35.3935 20.6661C34.1872 22.8292 32.9822 24.9925 31.779 27.1571C30.8296 28.8566 29.8839 30.5584 28.9373 32.2595C27.6336 32.2613 26.3302 32.2597 25.0268 32.2603C24.1032 30.2767 23.1925 28.2872 22.2676 26.3044C22.541 25.8198 22.825 25.3408 23.1017 24.8577C23.2108 24.6786 23.303 24.4883 23.4234 24.3165C24.3142 26.0247 25.2296 27.7204 26.1282 29.4248C26.1704 29.5044 26.2122 29.584 26.2562 29.6626C26.6634 29.6603 27.0708 29.6613 27.4782 29.6621C28.9585 27.1517 30.4279 24.635 31.9078 22.1244C32.2751 21.5057 32.6304 20.8795 33.0043 20.2649C31.9782 20.2626 30.9518 20.2585 29.9259 20.2669C29.4249 21.0852 28.9074 21.8938 28.4013 22.709C27.6048 21.029 26.8178 19.3444 26.0215 17.6641Z" fill="white"/>
</svg>
