<svg width="50" height="50" viewBox="0 0 50 50" fill="none" xmlns="http://www.w3.org/2000/svg">
<path opacity="0.2" d="M49.2508 31.0481C45.9118 44.4411 32.3462 52.5911 18.9516 49.252C5.56334 45.913 -2.58744 32.3473 0.752402 18.9552C4.0899 5.56062 17.6547 -2.59094 31.0454 0.748122C44.4391 4.08718 52.5891 17.6544 49.2501 31.0481H49.2508Z" fill="#F7931A"/>
<path fill-rule="evenodd" clip-rule="evenodd" d="M32.5299 22.0955C32.867 19.8388 31.1487 18.6256 28.7993 17.8163L29.5614 14.7594L27.7001 14.2956L26.9581 17.272C26.4695 17.1501 25.967 17.0351 25.4678 16.9212L26.2151 13.9252L24.3553 13.4614L23.5927 16.5173C23.1878 16.4251 22.7903 16.334 22.4045 16.238L22.4066 16.2285L19.8404 15.5877L19.3454 17.5752C19.3454 17.5752 20.726 17.8916 20.6968 17.9112C21.4505 18.0994 21.5872 18.5981 21.5639 18.9934L20.6958 22.476C20.7477 22.4893 20.815 22.5083 20.8892 22.538L20.6931 22.4893L19.4757 27.3678C19.3835 27.5968 19.1498 27.9402 18.623 27.8098C18.6415 27.8368 17.2705 27.4722 17.2705 27.4722L16.3467 29.6028L18.7687 30.2064C19.0421 30.2749 19.3121 30.3454 19.5791 30.415L19.5794 30.4151C19.7524 30.4602 19.9242 30.505 20.0948 30.5488L19.3247 33.6413L21.1834 34.105L21.9465 31.0459C22.4537 31.1837 22.9466 31.3109 23.4289 31.4307L22.6689 34.4755L24.5297 34.9392L25.2998 31.8531C28.4728 32.4536 30.8594 32.2114 31.8626 29.342C32.6719 27.0313 31.8229 25.6983 30.1534 24.8286C31.3692 24.5472 32.285 23.7474 32.5294 22.0955H32.5299ZM28.2773 28.0577C27.7491 30.1785 24.4287 29.301 22.9108 28.8998C22.7749 28.8639 22.6534 28.8318 22.5497 28.806L23.5715 24.7097C23.6983 24.7414 23.8532 24.7761 24.0286 24.8155C25.5989 25.1679 28.817 25.89 28.2778 28.0577H28.2773ZM24.3448 22.9142C25.6113 23.2521 28.372 23.9886 28.8529 22.0619C29.3445 20.091 26.6601 19.4969 25.349 19.2068C25.2016 19.1741 25.0716 19.1454 24.9654 19.1189L24.039 22.8341C24.1267 22.856 24.2295 22.8834 24.3448 22.9142Z" fill="#F7931A"/>
</svg>
