<svg width="35" height="35" viewBox="0 0 35 35" fill="none" xmlns="http://www.w3.org/2000/svg">
<path d="M12.0001 12.0003L23.0001 12.0003M23.0001 12.0003L23.0001 23.0003M23.0001 12.0003L11.9999 23.0003M34 9.8L34 25.2C34 28.2803 34 29.8204 33.4005 30.9969C32.8732 32.0318 32.0318 32.8732 30.9969 33.4005C29.8204 34 28.2803 34 25.2 34L9.8 34C6.71971 34 5.17957 34 4.00305 33.4005C2.96816 32.8732 2.12677 32.0318 1.59946 30.9969C0.999999 29.8204 0.999999 28.2803 0.999999 25.2L1 9.8C1 6.71971 1 5.17957 1.59946 4.00305C2.12677 2.96816 2.96816 2.12677 4.00305 1.59946C5.17957 1 6.71971 1 9.8 1L25.2 1C28.2803 1 29.8204 1 30.9969 1.59947C32.0318 2.12677 32.8732 2.96816 33.4005 4.00305C34 5.17957 34 6.71971 34 9.8Z" stroke="black" stroke-width="2" stroke-linecap="round" stroke-linejoin="round"/>
</svg>
