<svg width="35" height="32" viewBox="0 0 35 32" fill="none" xmlns="http://www.w3.org/2000/svg">
<path d="M17.5 31L17.3349 30.7499C16.1887 29.0133 15.6157 28.145 14.8585 27.5164C14.1882 26.9599 13.4159 26.5423 12.5856 26.2877C11.6479 26 10.6147 26 8.54846 26H6.28C4.43183 26 3.50774 26 2.80183 25.6367C2.1809 25.3171 1.67606 24.8072 1.35968 24.18C1 23.4669 1 22.5335 1 20.6667V6.33333C1 4.46649 1 3.53307 1.35968 2.82003C1.67606 2.19282 2.1809 1.68289 2.80183 1.36331C3.50774 1 4.43183 1 6.28 1H6.94C10.6363 1 12.4845 1 13.8963 1.72662C15.1382 2.36578 16.1479 3.38565 16.7806 4.64006C17.5 6.06614 17.5 7.93298 17.5 11.6667M17.5 31V11.6667M17.5 31L17.6651 30.7499C18.8112 29.0133 19.3843 28.145 20.1415 27.5164C20.8118 26.9599 21.5841 26.5423 22.4144 26.2877C23.3521 26 24.3853 26 26.4515 26H28.72C30.5682 26 31.4923 26 32.1982 25.6367C32.8191 25.3171 33.3239 24.8072 33.6403 24.18C34 23.4669 34 22.5335 34 20.6667V6.33333C34 4.46649 34 3.53307 33.6403 2.82003C33.3239 2.19282 32.8191 1.68289 32.1982 1.36331C31.4923 1 30.5682 1 28.72 1H28.06C24.3637 1 22.5155 1 21.1037 1.72662C19.8618 2.36578 18.8521 3.38565 18.2194 4.64006C17.5 6.06614 17.5 7.93298 17.5 11.6667" stroke="black" stroke-width="2" stroke-linecap="round" stroke-linejoin="round"/>
</svg>
