<svg width="28" height="24" viewBox="0 0 28 24" fill="none" xmlns="http://www.w3.org/2000/svg">
<path fill-rule="evenodd" clip-rule="evenodd" d="M4.19531 22.4715C3.71929 21.9955 2.94749 21.9955 2.47146 22.4715L1.13813 23.8049L0.195312 22.8621L1.52865 21.5288C2.52538 20.5321 4.14139 20.5321 5.13813 21.5288C5.61415 22.0047 6.38595 22.0047 6.86198 21.5288C7.85871 20.5321 9.47472 20.5321 10.4715 21.5288C10.9475 22.0047 11.7193 22.0047 12.1953 21.5288C13.192 20.5321 14.808 20.5321 15.8048 21.5288C16.2808 22.0047 17.0527 22.0047 17.5287 21.5288C18.5253 20.5321 20.1413 20.5321 21.1381 21.5288C21.6141 22.0047 22.386 22.0047 22.862 21.5288C23.8587 20.5321 25.4747 20.5321 26.4715 21.5288L27.8048 22.8621L26.862 23.8049L25.5287 22.4715C25.0527 21.9955 24.2808 21.9955 23.8048 22.4715C22.808 23.4683 21.192 23.4683 20.1953 22.4715C19.7193 21.9955 18.9475 21.9955 18.4715 22.4715C17.4747 23.4683 15.8587 23.4683 14.862 22.4715C14.386 21.9955 13.6141 21.9955 13.1381 22.4715C12.1413 23.4683 10.5254 23.4683 9.52864 22.4715C9.05262 21.9955 8.28082 21.9955 7.80479 22.4715C6.80806 23.4683 5.19205 23.4683 4.19531 22.4715Z" fill="white"/>
<path fill-rule="evenodd" clip-rule="evenodd" d="M4.19531 17.1382C3.71929 16.6622 2.94749 16.6622 2.47146 17.1382L1.13813 18.4715L0.195312 17.5287L1.52865 16.1954C2.52538 15.1987 4.14139 15.1987 5.13813 16.1954C5.61415 16.6714 6.38595 16.6714 6.86198 16.1954C7.85871 15.1987 9.47472 15.1987 10.4715 16.1954C10.9475 16.6714 11.7193 16.6714 12.1953 16.1954C13.192 15.1987 14.808 15.1987 15.8048 16.1954C16.2808 16.6714 17.0527 16.6714 17.5287 16.1954C18.5253 15.1987 20.1413 15.1987 21.1381 16.1954C21.6141 16.6714 22.386 16.6714 22.862 16.1954C23.8587 15.1987 25.4747 15.1987 26.4715 16.1954L27.8048 17.5287L26.862 18.4715L25.5287 17.1382C25.0527 16.6622 24.2808 16.6622 23.8048 17.1382C22.808 18.135 21.192 18.135 20.1953 17.1382C19.7193 16.6622 18.9475 16.6622 18.4715 17.1382C17.4747 18.135 15.8587 18.135 14.862 17.1382C14.386 16.6622 13.6141 16.6622 13.1381 17.1382C12.1413 18.135 10.5254 18.135 9.52864 17.1382C9.05262 16.6622 8.28082 16.6622 7.80479 17.1382C6.80806 18.135 5.19205 18.135 4.19531 17.1382Z" fill="white"/>
<path fill-rule="evenodd" clip-rule="evenodd" d="M2.66797 3.33333C2.66797 1.49239 4.16036 0 6.0013 0C7.84225 0 9.33463 1.49239 9.33463 3.33333V16H8.0013V3.33333C8.0013 2.22876 7.10588 1.33333 6.0013 1.33333C4.89673 1.33333 4.0013 2.22876 4.0013 3.33333V4.66667H2.66797V3.33333Z" fill="white"/>
<path fill-rule="evenodd" clip-rule="evenodd" d="M13.332 3.33333C13.332 1.49239 14.8244 0 16.6654 0C18.5063 0 19.9987 1.49239 19.9987 3.33333V16H18.6654V3.33333C18.6654 2.22876 17.7699 1.33333 16.6654 1.33333C15.5608 1.33333 14.6654 2.22876 14.6654 3.33333V4.66667H13.332V3.33333Z" fill="white"/>
<path fill-rule="evenodd" clip-rule="evenodd" d="M8.66797 7.3335H19.3346V8.66683H8.66797V7.3335Z" fill="white"/>
<path fill-rule="evenodd" clip-rule="evenodd" d="M8.66797 12H19.3346V13.3333H8.66797V12Z" fill="white"/>
</svg>
