<svg width="168" height="39" viewBox="0 0 168 39" fill="none" xmlns="http://www.w3.org/2000/svg">
<g clip-path="url(#clip0_2_8567)">
<path d="M28.9624 0H9.87074C4.41928 0 0 4.41928 0 9.87074V29.02C0 34.4714 4.41928 38.8907 9.87074 38.8907H28.9624C34.4139 38.8907 38.8331 34.4714 38.8331 29.02V9.87074C38.8331 4.41928 34.4139 0 28.9624 0Z" fill="#9DDF1E"/>
<path d="M62.1832 28.9784C60.316 28.9784 58.6873 28.6082 57.289 27.8597C55.8906 27.1112 54.8131 26.0912 54.0481 24.7998C53.2831 23.5083 52.8965 22.0195 52.8965 20.3415C52.8965 18.6635 53.2666 17.1746 54.0152 15.8832C54.7555 14.5918 55.7837 13.5718 57.0833 12.8233C58.383 12.0747 59.88 11.7046 61.5827 11.7046C63.1374 11.7046 64.544 12.0418 65.8107 12.7163C67.0775 13.3908 68.0974 14.3532 68.8624 15.6118C69.6274 16.8703 70.0304 18.392 70.0716 20.177L56.1621 22.8256L56.0962 20.2428L67.7355 18.0383L66.3207 19.8068C66.3618 18.8444 66.1726 17.989 65.7531 17.2569C65.3336 16.5248 64.7661 15.949 64.0504 15.5377C63.3348 15.1264 62.5122 14.9208 61.5663 14.9208C60.6203 14.9208 59.7484 15.1264 59.0163 15.5377C58.2843 15.949 57.7085 16.5495 57.3054 17.3309C56.8941 18.1206 56.6885 19.0501 56.6885 20.1194C56.6885 21.2957 56.9188 22.2992 57.3794 23.13C57.8401 23.9608 58.4899 24.5941 59.3289 25.0219C60.1679 25.4496 61.1468 25.6717 62.2572 25.6717C63.2032 25.6717 64.0422 25.5154 64.7907 25.2028C65.531 24.8903 66.2138 24.4296 66.8225 23.8127L68.8953 26.2722C68.1386 27.1523 67.1926 27.8268 66.0493 28.2874C64.9059 28.7481 63.6145 28.9784 62.1668 28.9784H62.1832Z" fill="#22212E"/>
<path d="M81.5409 28.9784C79.7806 28.9784 78.2095 28.6082 76.8358 27.8597C75.4622 27.1112 74.3846 26.0912 73.6114 24.7998C72.8382 23.5084 72.4434 22.0195 72.4434 20.3415C72.4434 18.6635 72.83 17.1499 73.6114 15.8668C74.3846 14.5836 75.4622 13.5718 76.8358 12.8233C78.2095 12.0747 79.7806 11.7046 81.5409 11.7046C83.1531 11.7046 84.5926 12.0418 85.8511 12.7163C87.1096 13.3908 88.0556 14.3615 88.6807 15.6447L85.6948 17.4132C85.1931 16.64 84.5761 16.0559 83.8523 15.6611C83.1284 15.2745 82.347 15.0771 81.508 15.0771C80.5456 15.0771 79.6737 15.291 78.9005 15.7269C78.1273 16.1546 77.5186 16.7633 77.0744 17.553C76.6302 18.3427 76.4163 19.2722 76.4163 20.3415C76.4163 21.4108 76.6384 22.3485 77.0744 23.1464C77.5186 23.9443 78.119 24.5612 78.9005 24.989C79.6737 25.4167 80.5456 25.6388 81.508 25.6388C82.347 25.6388 83.1284 25.4414 83.8523 25.0548C84.5761 24.6682 85.1931 24.0759 85.6948 23.278L88.6807 25.0465C88.0556 26.3051 87.1096 27.2757 85.8511 27.9584C84.5926 28.6411 83.1531 28.9866 81.5409 28.9866V28.9784Z" fill="#22212E"/>
<path d="M99.4061 28.9784C97.7034 28.9784 96.1816 28.6082 94.8244 27.8597C93.4754 27.1112 92.4061 26.0912 91.6329 24.7833C90.8597 23.4837 90.4648 22.0031 90.4648 20.3415C90.4648 18.6799 90.8514 17.1499 91.6329 15.8668C92.4061 14.5836 93.4672 13.5718 94.808 12.8233C96.1487 12.0747 97.6787 11.7046 99.3979 11.7046C101.117 11.7046 102.688 12.0747 104.037 12.8233C105.386 13.5718 106.447 14.5836 107.212 15.8668C107.977 17.1499 108.364 18.6388 108.364 20.3415C108.364 22.0442 107.985 23.5083 107.212 24.7998C106.447 26.0912 105.378 27.1112 104.021 27.8597C102.655 28.6082 101.117 28.9784 99.3979 28.9784H99.4061ZM99.4061 25.6388C100.368 25.6388 101.232 25.4249 101.989 24.989C102.746 24.5612 103.338 23.9361 103.766 23.13C104.193 22.3239 104.407 21.3944 104.407 20.3415C104.407 19.2886 104.193 18.3427 103.766 17.553C103.338 16.7633 102.746 16.1546 101.989 15.7269C101.232 15.2992 100.385 15.0771 99.439 15.0771C98.493 15.0771 97.6458 15.291 96.889 15.7269C96.1323 16.1546 95.54 16.7633 95.0959 17.553C94.6517 18.3427 94.4378 19.2722 94.4378 20.3415C94.4378 21.4108 94.6599 22.3239 95.0959 23.13C95.54 23.9361 96.1323 24.5612 96.889 24.989C97.6458 25.4167 98.4848 25.6388 99.4061 25.6388Z" fill="#22212E"/>
<path d="M119.261 28.9786C117.649 28.9786 116.193 28.6249 114.901 27.9093C113.61 27.1937 112.598 26.1901 111.866 24.8987C111.134 23.6073 110.764 22.0855 110.764 20.3417C110.764 18.5979 111.134 17.109 111.866 15.8012C112.598 14.5015 113.61 13.4898 114.901 12.7741C116.193 12.0585 117.64 11.7048 119.261 11.7048C120.667 11.7048 121.926 12.0174 123.036 12.6343C124.147 13.2512 125.027 14.1972 125.677 15.4722C126.327 16.7471 126.656 18.3676 126.656 20.3417C126.656 22.3159 126.343 23.9116 125.71 25.1948C125.076 26.478 124.213 27.424 123.11 28.0491C122.008 28.666 120.725 28.9786 119.253 28.9786H119.261ZM119.73 25.639C120.676 25.639 121.515 25.4251 122.263 24.9892C123.003 24.5615 123.604 23.9363 124.056 23.1302C124.509 22.3241 124.731 21.3946 124.731 20.3417C124.731 19.2888 124.509 18.3429 124.056 17.5532C123.604 16.7636 123.003 16.1549 122.263 15.7271C121.515 15.2994 120.676 15.0773 119.73 15.0773C118.784 15.0773 117.945 15.2912 117.196 15.7271C116.448 16.1549 115.855 16.7636 115.403 17.5532C114.951 18.3429 114.728 19.2724 114.728 20.3417C114.728 21.411 114.951 22.3241 115.403 23.1302C115.855 23.9363 116.448 24.5615 117.196 24.9892C117.945 25.4169 118.784 25.639 119.73 25.639ZM124.862 28.7565V24.7836L124.953 20.3088L124.64 15.8341V5.37109H128.605V28.7565H124.862Z" fill="#22212E"/>
<path d="M141.662 28.9784C139.795 28.9784 138.166 28.6082 136.767 27.8597C135.369 27.1112 134.292 26.0912 133.527 24.7998C132.762 23.5083 132.375 22.0195 132.375 20.3415C132.375 18.6635 132.745 17.1746 133.494 15.8832C134.234 14.5918 135.262 13.5718 136.562 12.8233C137.861 12.0747 139.359 11.7046 141.061 11.7046C142.616 11.7046 144.022 12.0418 145.289 12.7163C146.556 13.3908 147.576 14.3532 148.341 15.6118C149.106 16.8703 149.509 18.392 149.55 20.177L135.641 22.8256L135.575 20.2428L147.214 18.0383L145.799 19.8068C145.84 18.8444 145.651 17.989 145.232 17.2569C144.812 16.5248 144.245 15.949 143.529 15.5377C142.813 15.1264 141.991 14.9208 141.045 14.9208C140.099 14.9208 139.227 15.1264 138.495 15.5377C137.763 15.949 137.187 16.5495 136.784 17.3309C136.373 18.1206 136.167 19.0501 136.167 20.1194C136.167 21.2957 136.397 22.2992 136.858 23.13C137.319 23.9608 137.968 24.5941 138.807 25.0219C139.646 25.4496 140.625 25.6717 141.736 25.6717C142.682 25.6717 143.521 25.5154 144.269 25.2028C145.01 24.8903 145.692 24.4296 146.301 23.8127L148.374 26.2722C147.617 27.1523 146.671 27.8268 145.528 28.2874C144.384 28.7481 143.093 28.9784 141.645 28.9784H141.662Z" fill="#22212E"/>
<path d="M150.536 28.7569L157.898 19.1165L157.865 21.1976L150.782 11.9355H155.183L160.127 18.5243H158.457L163.425 11.9355H167.67L160.563 21.2305L160.596 19.1165L167.99 28.7569H163.524L158.333 21.7323L160.003 21.9543L154.903 28.7569H150.527H150.536Z" fill="#22212E"/>
<path fill-rule="evenodd" clip-rule="evenodd" d="M26.7488 23.6735L11.6877 27.3421C9.98501 27.7534 8.61133 29.5301 8.61133 31.2986C8.61133 33.0671 9.99323 34.1694 11.6877 33.7581L26.7488 30.0895C28.4515 29.6782 29.8252 27.9015 29.8252 26.133C29.8252 24.3644 28.4433 23.2622 26.7488 23.6735ZM11.6877 24.4878L22.9815 21.7405C24.6842 21.3292 26.0579 19.5525 26.0579 17.784C26.0579 16.0154 24.676 14.9132 22.9815 15.3245L11.6877 18.0718C9.98501 18.4831 8.61133 20.2599 8.61133 22.0284C8.61133 23.7969 9.99323 24.8991 11.6877 24.4878ZM11.6877 15.2176L26.7488 11.5489C28.4515 11.1377 29.8252 9.36092 29.8252 7.59241C29.8252 5.8239 28.4433 4.72167 26.7488 5.13295L11.6877 8.80158C9.98501 9.21286 8.61133 10.9896 8.61133 12.7581C8.61133 14.5266 9.99323 15.6288 11.6877 15.2176Z" fill="white"/>
</g>
<defs>
<clipPath id="clip0_2_8567">
<rect width="168" height="38.8907" fill="white"/>
</clipPath>
</defs>
</svg>
