<svg width="116" height="27" viewBox="0 0 116 27" fill="none" xmlns="http://www.w3.org/2000/svg">
<g clip-path="url(#clip0_52_1756)">
<path d="M19.9978 0H6.81551C3.05141 0 0 3.05141 0 6.81551V20.0376C0 23.8017 3.05141 26.8531 6.81551 26.8531H19.9978C23.7619 26.8531 26.8134 23.8017 26.8134 20.0376V6.81551C26.8134 3.05141 23.7619 0 19.9978 0Z" fill="#9DDF1E"/>
<path d="M42.9364 20.0087C41.6472 20.0087 40.5226 19.7531 39.5571 19.2363C38.5915 18.7194 37.8475 18.0152 37.3193 17.1235C36.7911 16.2318 36.5242 15.2038 36.5242 14.0451C36.5242 12.8865 36.7798 11.8585 37.2966 10.9668C37.8078 10.0751 38.5177 9.37081 39.4151 8.85397C40.3125 8.33712 41.3461 8.08154 42.5218 8.08154C43.5953 8.08154 44.5665 8.31441 45.4411 8.78013C46.3158 9.24586 47.0201 9.91037 47.5483 10.7793C48.0765 11.6483 48.3548 12.6991 48.3832 13.9315L38.779 15.7604L38.7335 13.977L46.7702 12.4548L45.7933 13.6759C45.8217 13.0114 45.691 12.4208 45.4014 11.9153C45.1117 11.4098 44.7198 11.0122 44.2257 10.7282C43.7316 10.4443 43.1636 10.3023 42.5105 10.3023C41.8573 10.3023 41.2553 10.4443 40.7498 10.7282C40.2443 11.0122 39.8467 11.4268 39.5684 11.9664C39.2845 12.5116 39.1425 13.1534 39.1425 13.8918C39.1425 14.7039 39.3015 15.3969 39.6196 15.9705C39.9376 16.5441 40.3863 16.9815 40.9656 17.2768C41.5449 17.5721 42.2208 17.7255 42.9875 17.7255C43.6407 17.7255 44.22 17.6176 44.7369 17.4018C45.248 17.1859 45.7194 16.8679 46.1397 16.4419L47.571 18.1401C47.0485 18.7478 46.3953 19.2135 45.6058 19.5316C44.8164 19.8497 43.9247 20.0087 42.9251 20.0087H42.9364Z" fill="#22212E"/>
<path d="M56.3019 20.0087C55.0865 20.0087 54.0017 19.7531 53.0532 19.2363C52.1047 18.7194 51.3606 18.0152 50.8268 17.1235C50.2929 16.2318 50.0203 15.2038 50.0203 14.0451C50.0203 12.8865 50.2872 11.8414 50.8268 10.9554C51.3606 10.0694 52.1047 9.37081 53.0532 8.85397C54.0017 8.33712 55.0865 8.08154 56.3019 8.08154C57.4151 8.08154 58.409 8.31441 59.278 8.78013C60.147 9.24586 60.8001 9.91605 61.2318 10.8021L59.1701 12.0232C58.8236 11.4893 58.3977 11.086 57.8979 10.8134C57.3981 10.5465 56.8585 10.4102 56.2792 10.4102C55.6147 10.4102 55.0126 10.5578 54.4787 10.8589C53.9449 11.1542 53.5246 11.5745 53.2179 12.1197C52.9112 12.665 52.7635 13.3068 52.7635 14.0451C52.7635 14.7835 52.9169 15.4309 53.2179 15.9819C53.5246 16.5328 53.9392 16.9587 54.4787 17.2541C55.0126 17.5494 55.6147 17.7028 56.2792 17.7028C56.8585 17.7028 57.3981 17.5665 57.8979 17.2995C58.3977 17.0326 58.8236 16.6236 59.1701 16.0727L61.2318 17.2938C60.8001 18.1628 60.147 18.833 59.278 19.3044C58.409 19.7758 57.4151 20.0144 56.3019 20.0144V20.0087Z" fill="#22212E"/>
<path d="M68.6373 20.0087C67.4617 20.0087 66.4109 19.7531 65.4738 19.2363C64.5424 18.7194 63.804 18.0152 63.2701 17.1121C62.7362 16.2147 62.4636 15.1924 62.4636 14.0451C62.4636 12.8978 62.7306 11.8414 63.2701 10.9554C63.804 10.0694 64.5367 9.37081 65.4624 8.85397C66.3882 8.33712 67.4446 8.08154 68.6317 8.08154C69.8187 8.08154 70.9035 8.33712 71.835 8.85397C72.7664 9.37081 73.4991 10.0694 74.0273 10.9554C74.5555 11.8414 74.8224 12.8694 74.8224 14.0451C74.8224 15.2208 74.5612 16.2318 74.0273 17.1235C73.4991 18.0152 72.7607 18.7194 71.8236 19.2363C70.8808 19.7531 69.8187 20.0087 68.6317 20.0087H68.6373ZM68.6373 17.7028C69.3018 17.7028 69.8982 17.5551 70.4207 17.2541C70.9433 16.9587 71.3522 16.5271 71.6475 15.9705C71.9429 15.4139 72.0905 14.7721 72.0905 14.0451C72.0905 13.3181 71.9429 12.665 71.6475 12.1197C71.3522 11.5745 70.9433 11.1542 70.4207 10.8589C69.8982 10.5635 69.3132 10.4102 68.6601 10.4102C68.0069 10.4102 67.4219 10.5578 66.8994 10.8589C66.3769 11.1542 65.9679 11.5745 65.6612 12.1197C65.3545 12.665 65.2069 13.3068 65.2069 14.0451C65.2069 14.7835 65.3602 15.4139 65.6612 15.9705C65.9679 16.5271 66.3769 16.9587 66.8994 17.2541C67.4219 17.5494 68.0012 17.7028 68.6373 17.7028Z" fill="#22212E"/>
<path d="M82.348 20.0089C81.2348 20.0089 80.2295 19.7647 79.3378 19.2706C78.4461 18.7765 77.7475 18.0835 77.242 17.1918C76.7365 16.3002 76.481 15.2494 76.481 14.0454C76.481 12.8413 76.7365 11.8133 77.242 10.9102C77.7475 10.0128 78.4461 9.31425 79.3378 8.82013C80.2295 8.326 81.2291 8.08178 82.348 8.08178C83.3192 8.08178 84.1882 8.29761 84.9549 8.72358C85.7217 9.14955 86.3294 9.8027 86.7781 10.683C87.2267 11.5634 87.4539 12.6823 87.4539 14.0454C87.4539 15.4085 87.2381 16.5103 86.8008 17.3963C86.3634 18.2823 85.7671 18.9355 85.006 19.3671C84.245 19.7931 83.3589 20.0089 82.3423 20.0089H82.348ZM82.6717 17.703C83.3249 17.703 83.9042 17.5553 84.421 17.2543C84.9322 16.959 85.3468 16.5273 85.6592 15.9707C85.9716 15.4141 86.1249 14.7723 86.1249 14.0454C86.1249 13.3184 85.9716 12.6652 85.6592 12.12C85.3468 11.5747 84.9322 11.1544 84.421 10.8591C83.9042 10.5638 83.3249 10.4104 82.6717 10.4104C82.0186 10.4104 81.4392 10.5581 80.9224 10.8591C80.4056 11.1544 79.9966 11.5747 79.6842 12.12C79.3719 12.6652 79.2185 13.307 79.2185 14.0454C79.2185 14.7837 79.3719 15.4141 79.6842 15.9707C79.9966 16.5273 80.4056 16.959 80.9224 17.2543C81.4392 17.5497 82.0186 17.703 82.6717 17.703ZM86.2158 19.8556V17.1123L86.2783 14.0226L86.0624 10.9329V3.7085H88.8V19.8556H86.2158Z" fill="#22212E"/>
<path d="M97.8146 20.0087C96.5253 20.0087 95.4008 19.7531 94.4353 19.2363C93.4697 18.7194 92.7257 18.0152 92.1975 17.1235C91.6693 16.2318 91.4023 15.2038 91.4023 14.0451C91.4023 12.8865 91.6579 11.8585 92.1748 10.9668C92.6859 10.0751 93.3959 9.37081 94.2933 8.85397C95.1906 8.33712 96.2243 8.08154 97.4 8.08154C98.4734 8.08154 99.4447 8.31441 100.319 8.78013C101.194 9.24586 101.898 9.91037 102.426 10.7793C102.955 11.6483 103.233 12.6991 103.261 13.9315L93.6571 15.7604L93.6117 13.977L101.648 12.4548L100.671 13.6759C100.7 13.0114 100.569 12.4208 100.28 11.9153C99.9899 11.4098 99.598 11.0122 99.1039 10.7282C98.6098 10.4443 98.0418 10.3023 97.3886 10.3023C96.7355 10.3023 96.1334 10.4443 95.628 10.7282C95.1225 11.0122 94.7249 11.4268 94.4466 11.9664C94.1626 12.5116 94.0206 13.1534 94.0206 13.8918C94.0206 14.7039 94.1797 15.3969 94.4977 15.9705C94.8158 16.5441 95.2645 16.9815 95.8438 17.2768C96.4231 17.5721 97.099 17.7255 97.8657 17.7255C98.5189 17.7255 99.0982 17.6176 99.615 17.4018C100.126 17.1859 100.598 16.8679 101.018 16.4419L102.449 18.1401C101.927 18.7478 101.273 19.2135 100.484 19.5316C99.6946 19.8497 98.8029 20.0087 97.8032 20.0087H97.8146Z" fill="#22212E"/>
<path d="M103.942 19.856L109.025 13.1995L109.002 14.6364L104.112 8.24121H107.151L110.564 12.7906H109.411L112.842 8.24121H115.772L110.865 14.6591L110.888 13.1995L115.994 19.856H112.91L109.326 15.0056L110.479 15.159L106.958 19.856H103.936H103.942Z" fill="#22212E"/>
<path fill-rule="evenodd" clip-rule="evenodd" d="M18.4688 16.3461L8.06948 18.8792C6.8938 19.1632 5.94531 20.39 5.94531 21.6111C5.94531 22.8322 6.89948 23.5933 8.06948 23.3093L18.4688 20.7762C19.6445 20.4922 20.593 19.2654 20.593 18.0443C20.593 16.8232 19.6388 16.0621 18.4688 16.3461ZM8.06948 16.9084L15.8676 15.0114C17.0432 14.7274 17.9917 13.5006 17.9917 12.2795C17.9917 11.0584 17.0376 10.2973 15.8676 10.5813L8.06948 12.4783C6.8938 12.7623 5.94531 13.9891 5.94531 15.2102C5.94531 16.4313 6.89948 17.1924 8.06948 16.9084ZM8.06948 10.5075L18.4688 7.97438C19.6445 7.6904 20.593 6.46361 20.593 5.2425C20.593 4.02138 19.6388 3.26032 18.4688 3.5443L8.06948 6.0774C6.8938 6.36138 5.94531 7.58817 5.94531 8.80928C5.94531 10.0304 6.89948 10.7915 8.06948 10.5075Z" fill="white"/>
</g>
<defs>
<clipPath id="clip0_52_1756">
<rect width="116" height="26.8531" fill="white"/>
</clipPath>
</defs>
</svg>
