<svg width="50" height="50" viewBox="0 0 50 50" fill="none" xmlns="http://www.w3.org/2000/svg">
<path opacity="0.2" d="M49.8642 25.0005C49.8642 38.7349 38.7305 49.8689 24.9962 49.8689C11.2618 49.8689 0.12793 38.7349 0.12793 25.0005C0.12793 11.2662 11.2618 0.132324 24.9962 0.132324C38.7303 0.132324 49.8642 11.2662 49.8642 25.0005" fill="#58FF84"/>
<path d="M22.4457 24.5649V20.2144H16.5449V16.4009H33.0339V20.2681H27.1332V24.5649H22.4457Z" fill="#58FF84"/>
<path fill-rule="evenodd" clip-rule="evenodd" d="M14.0078 25.0483C14.0078 23.5981 18.7505 22.4165 24.6512 22.4165C30.5519 22.4165 35.2946 23.5981 35.2946 25.0483C35.2946 26.4985 30.5519 27.6802 24.6512 27.6802C18.7505 27.6802 14.0078 26.4985 14.0078 25.0483ZM34.4128 25.0481C34.0267 24.511 30.8282 22.8459 24.6517 22.8459C18.4753 22.8459 15.2767 24.4573 14.8907 25.0481C15.2767 25.5852 18.4753 26.3908 24.6517 26.3908C30.8833 26.3908 34.0267 25.5852 34.4128 25.0481Z" fill="#58FF84"/>
<path d="M27.1343 25.9082V22.9004C26.3622 22.8467 25.535 22.793 24.7078 22.793C23.9358 22.793 23.2189 22.793 22.502 22.8467V25.8545C23.1637 25.8545 23.9358 25.9082 24.7078 25.9082C25.535 25.9619 26.3622 25.9619 27.1343 25.9082Z" fill="#58FF84"/>
<path d="M24.6522 27.6807C23.8801 27.6807 23.1632 27.6807 22.4463 27.627V35.6299H27.0786V27.5732C26.3066 27.627 25.4794 27.6807 24.6522 27.6807Z" fill="#58FF84"/>
</svg>
