<svg width="26" height="26" viewBox="0 0 26 26" fill="none" xmlns="http://www.w3.org/2000/svg">
<path d="M25.9293 13.0003C25.9293 20.1422 20.1397 25.9319 12.9979 25.9319C5.856 25.9319 0.0664062 20.1422 0.0664062 13.0003C0.0664062 5.85844 5.856 0.0688477 12.9979 0.0688477C20.1397 0.0688477 25.9293 5.85844 25.9293 13.0003Z" fill="white"/>
<path d="M11.6719 12.7736V10.5113H8.60352V8.52832H17.1778V10.5393H14.1094V12.7736H11.6719Z" fill="#3AA656"/>
<path d="M12.8193 11.6562C15.8872 11.6562 18.3536 12.2705 18.3545 13.0244C18.3545 13.7785 15.8877 14.3936 12.8193 14.3936C9.75113 14.3935 7.28516 13.7785 7.28516 13.0244C7.28601 12.2705 9.75166 11.6563 12.8193 11.6562ZM12.8193 11.8799C9.60903 11.8799 7.94589 12.7169 7.74414 13.0244C7.94487 13.3037 9.60782 13.7226 12.8193 13.7227C16.0598 13.7227 17.6948 13.3037 17.8955 13.0244C17.694 12.7449 16.0302 11.8799 12.8193 11.8799Z" fill="#3AA656"/>
<path d="M14.11 13.472V11.9079C13.7085 11.88 13.2784 11.8521 12.8482 11.8521C12.4468 11.8521 12.074 11.8521 11.7012 11.88V13.444C12.0453 13.444 12.4468 13.472 12.8482 13.472C13.2784 13.4999 13.7085 13.4999 14.11 13.472Z" fill="#3AA656"/>
<path d="M12.8189 14.3938C12.4175 14.3938 12.0447 14.3938 11.6719 14.3658V18.5273H14.0807V14.3379C13.6792 14.3658 13.2491 14.3938 12.8189 14.3938Z" fill="#3AA656"/>
</svg>
